<?xml version="1.0" encoding="utf-8"?>
<!-- Generator: Adobe Illustrator 28.0.0, SVG Export Plug-In . SVG Version: 6.00 Build 0)  -->
<svg version="1.1" id="Layer_1" xmlns="http://www.w3.org/2000/svg" xmlns:xlink="http://www.w3.org/1999/xlink" x="0px" y="0px"
	 viewBox="0 0 504 105.77" style="enable-background:new 0 0 504 105.77;" xml:space="preserve">
<style type="text/css">
	.st0{fill:#9C835F;}
	.st1{fill:#9D845F;}
	
		.st2{clip-path:url(#SVGID_00000070839252558186867730000005389551295389310602_);fill:url(#SVGID_00000135680738356298919950000007135013590128494264_);}
	.st3{fill:#231F20;}
	
		.st4{clip-path:url(#SVGID_00000004539316279160850910000016128751247626130345_);fill:url(#SVGID_00000054232446950019169690000015328101256844634270_);}
	
		.st5{clip-path:url(#SVGID_00000067922576903593742580000011401031879228255378_);fill:url(#SVGID_00000002371142726259014010000015407777111793082302_);}
	.st6{fill:#00ADEE;}
	.st7{fill:#594A42;}
	
		.st8{clip-path:url(#SVGID_00000007419166953926651290000010877350619558384796_);fill:url(#SVGID_00000085239129862803686480000015273737345903398557_);}
</style>
<g>
	<path class="st0" d="M100.98,23.3c0.02,2.59,1.46,6.63,2.96,7.5c0.93-1.76,3.07-5.13,4.23-7.05c1.45-2.41,1.21-4.05,0.74-7.19
		c-0.42-2.83-0.05-5.23,0.28-6.58C105.11,13.49,100.94,17.72,100.98,23.3z"/>
	<path class="st0" d="M114.2,6.12c-2.79,2.17-2.83,5.59-2.5,8.12c0.33,2.52,0.13,3.94-0.07,5.29c1.76-1.64,4.65-4.31,7.09-6.14
		c2.23-1.67,1.65-3.87,1.9-6.79c0.16-1.95,0.71-3.71,1.2-4.7C119.81,2.89,116.46,4.37,114.2,6.12z"/>
	<path class="st0" d="M113.82,20.67c0,0,5.13-6.22,9.08-6.12c4.15,0.11,5.62,1.58,7.26,2.25c1.64,0.66,4.41,0.24,4.41,0.24
		s-5.83,4.14-8.48,4.87C122.58,22.88,117.83,19.84,113.82,20.67z"/>
	<path class="st0" d="M106.14,31.57c0,0,2.65-6.72,5.88-8.14c0.93-0.41,2.26-0.8,4.26-0.63c2.32,0.18,3.09,0.87,5.15,1.36
		c1.52,0.38,3.68-0.1,3.68-0.1s-2.33,1.89-4.31,3.95c-1.51,1.59-3.37,2.15-5.38,2.26C111.39,30.48,108.14,30.38,106.14,31.57z"/>
	<path class="st1" d="M98.66,22.46c-2.8,4.91-4.88,9.12-4.64,12.61c0.19,2.77,1.48,4.91,3.11,6.99c0.9,1.16,1.89,2.12,2.48,2.94
		c0.58-2.52,1.35-6.52,1.54-9.14c0.14-2.02-0.12-4.35-1.65-7.43C97.99,25.36,98.69,23.03,98.66,22.46z"/>
	<path class="st0" d="M101.99,45.1c0,0,0.7-8.21,3.23-10.33c1.7-1.42,2.58-1.64,4.15-1.6c2.16,0.07,3.14,0.4,4.96,0.11
		c2.31-0.37,3.08-1.16,3.08-1.16s-2.37,4.52-3.88,7.18c-0.69,1.2-1.61,1.46-2.69,1.98C107.6,42.86,103.43,42.39,101.99,45.1z"/>
	<path class="st0" d="M102.28,58.03c0,0-0.94-5.32-0.59-7.69c0.27-1.86,1.24-3.16,2.02-3.74c2.41-1.81,3.38-1.59,5.68-2.41
		c2.06-0.74,3.27-1.43,3.27-1.43s-0.54,8.04-3.49,11.05C107.09,55.94,105,56.86,102.28,58.03z"/>
	<path class="st1" d="M122.74,10.92c0,0,1.34-8.51,9.62-10.41c7.76-1.78,13.88,4.77,13.88,4.77s-4.97,4.91-9.6,5.78
		C130.82,12.16,125.17,9.21,122.74,10.92z"/>
	<g>
		<defs>
			<path id="SVGID_1_" d="M99.34,52.91L99.34,52.91c-0.08-0.81-0.16-1.55-0.26-2.09c-0.42-2.18-2.22-4.35-3.81-6.27l-0.48-0.58
				c-1.4-1.46-2.26-3.13-2.77-4.52c-0.37,1.79-0.74,5.12-0.91,7.12c-0.34,3.83,0.76,5.89,1.77,7.09c1.77,2.09,3.96,3.27,5.45,3.98
				c2.48,15.79,12.87,29.92,28.97,35.6l0.19-0.6C111.13,86.06,100.2,70.23,99.34,52.91z"/>
		</defs>
		<clipPath id="SVGID_00000172406369342435458260000016242737587066371516_">
			<use xlink:href="#SVGID_1_"  style="overflow:visible;"/>
		</clipPath>
		
			<linearGradient id="SVGID_00000154396447942818312180000010544285558977416847_" gradientUnits="userSpaceOnUse" x1="609.0883" y1="-157.0355" x2="535.3892" y2="-157.0355" gradientTransform="matrix(0.3973 0.818 -0.8995 0.4369 -269.5518 -326.478)">
			<stop  offset="5.321270e-03" style="stop-color:#594A42"/>
			<stop  offset="0.2502" style="stop-color:#75624D"/>
			<stop  offset="0.5161" style="stop-color:#8B7557"/>
			<stop  offset="0.7708" style="stop-color:#98805D"/>
			<stop  offset="1" style="stop-color:#9D845F"/>
		</linearGradient>
		
			<polygon style="clip-path:url(#SVGID_00000172406369342435458260000016242737587066371516_);fill:url(#SVGID_00000154396447942818312180000010544285558977416847_);" points="
			84.66,117.24 55.39,56.96 113.44,28.77 142.72,89.05 		"/>
	</g>
	<g>
		<path class="st3" d="M307.5,49.54l-1.52,3.33h-1.78l6.35-13.87l6.35,13.87h-1.78l-1.52-3.33H307.5z M310.55,42.64l-2.36,5.38h4.73
			L310.55,42.64z"/>
		<path class="st3" d="M317.71,37.56h1.59v8.43h0.03c0.65-0.99,1.64-1.62,2.87-1.62c2.38,0,3.88,2.06,3.88,4.32
			c0,2.36-1.41,4.46-3.95,4.46c-1.16,0-2.17-0.63-2.8-1.57h-0.03v1.29h-1.59V37.56z M324.51,48.75c0-1.61-0.97-2.97-2.68-2.97
			c-1.64,0-2.61,1.43-2.61,2.97c0,1.55,0.93,3,2.61,3C323.55,51.75,324.51,50.37,324.51,48.75z"/>
		<path class="st3" d="M333.81,51.59h-0.04c-0.64,0.94-1.64,1.57-2.81,1.57c-2.54,0-3.95-2.1-3.95-4.46c0-2.26,1.5-4.32,3.88-4.32
			c1.23,0,2.22,0.63,2.88,1.62h0.04v-8.43h1.59v15.31h-1.59V51.59z M333.89,48.75c0-1.61-0.97-2.97-2.68-2.97
			c-1.64,0-2.61,1.43-2.61,2.97c0,1.55,0.93,3,2.61,3C332.94,51.75,333.89,50.37,333.89,48.75z"/>
		<path class="st3" d="M338.97,44.62v4.57c0,1.32,0.33,2.49,1.91,2.49c1.57,0,1.9-1.16,1.9-2.49v-4.57h1.59v4.75
			c0,2.26-1.06,3.79-3.49,3.79c-2.44,0-3.5-1.54-3.5-3.79v-4.75H338.97z"/>
		<path class="st3" d="M348.15,52.87h-1.59V37.56h1.59V52.87z"/>
		<path class="st3" d="M357.34,51.36h4.04v1.52h-5.7v-13.3h1.66V51.36z"/>
		<path class="st3" d="M370.05,52.87h-1.59v-1.29h-0.04c-0.64,0.94-1.62,1.57-2.81,1.57c-2.52,0-3.95-2.1-3.95-4.46
			c0-2.26,1.5-4.32,3.9-4.32c1.22,0,2.21,0.63,2.86,1.62h0.04v-1.38h1.59V52.87z M368.55,48.75c0-1.61-0.97-2.97-2.68-2.97
			c-1.64,0-2.61,1.43-2.61,2.97c0,1.55,0.93,3,2.61,3C367.6,51.75,368.55,50.37,368.55,48.75z"/>
		<path class="st3" d="M373.93,52.87h-1.59V46.1h-0.86v-1.48h0.86v-3.16h1.59v3.16h1.55v1.48h-1.55V52.87z"/>
		<path class="st3" d="M378.59,40.84c0,0.6-0.49,1.08-1.09,1.08c-0.6,0-1.09-0.48-1.09-1.08c0-0.62,0.49-1.11,1.09-1.11
			C378.1,39.73,378.59,40.22,378.59,40.84z M378.29,52.87h-1.59v-8.26h1.59V52.87z"/>
		<path class="st3" d="M384.92,39.17c-0.32-0.14-0.72-0.33-1.06-0.33c-1.13,0-1.13,1.43-1.13,2.24v3.55h2.19v1.48h-2.19v6.77h-1.59
			V46.1h-0.72v-1.48h0.72V40.6c0-1.8,0.62-3.25,2.66-3.25c0.39,0,0.76,0.07,1.11,0.21V39.17z"/>
		<path class="st3" d="M395.04,39.57v8.45c0,2.56-0.49,5.13-3.6,5.13c-0.77,0-1.43-0.19-2.08-0.58l0.83-1.41
			c0.37,0.28,0.85,0.44,1.32,0.44c1.91,0,1.87-2.22,1.87-3.58v-8.45H395.04z"/>
		<path class="st3" d="M404.92,52.87h-1.59v-1.29h-0.04c-0.64,0.94-1.62,1.57-2.81,1.57c-2.52,0-3.95-2.1-3.95-4.46
			c0-2.26,1.5-4.32,3.9-4.32c1.22,0,2.21,0.63,2.86,1.62h0.04v-1.38h1.59V52.87z M403.42,48.75c0-1.61-0.97-2.97-2.68-2.97
			c-1.64,0-2.61,1.43-2.61,2.97c0,1.55,0.93,3,2.61,3C402.47,51.75,403.42,50.37,403.42,48.75z"/>
		<path class="st3" d="M408.52,45.66h0.04c0.46-0.72,1.29-1.29,2.19-1.29c1.08,0,1.85,0.54,2.38,1.46c0.51-0.88,1.5-1.46,2.54-1.46
			c2.17,0,2.73,1.69,2.73,3.56v4.94h-1.59V48.2c0-1.06-0.14-2.42-1.53-2.42c-1.69,0-1.82,1.77-1.82,3.04v4.06h-1.59V48.5
			c0-1.08-0.05-2.72-1.52-2.72c-1.69,0-1.83,1.75-1.83,3.04v4.06h-1.59v-8.26h1.59V45.66z"/>
		<path class="st3" d="M421.47,49.01c0.02,1.41,0.97,2.73,2.49,2.73c1.22,0,1.87-0.62,2.47-1.61l1.34,0.76
			c-0.78,1.43-2.22,2.26-3.83,2.26c-2.52,0-4.06-1.91-4.06-4.34c0-2.54,1.36-4.44,4.02-4.44c2.63,0,3.87,1.94,3.87,4.39v0.25H421.47
			z M426.18,47.81c-0.19-1.24-1.01-2.06-2.28-2.06c-1.23,0-2.15,0.88-2.35,2.06H426.18z"/>
		<path class="st3" d="M430.08,49.01c0.02,1.41,0.97,2.73,2.49,2.73c1.22,0,1.87-0.62,2.47-1.61l1.34,0.76
			c-0.77,1.43-2.22,2.26-3.83,2.26c-2.52,0-4.06-1.91-4.06-4.34c0-2.54,1.36-4.44,4.02-4.44c2.63,0,3.86,1.94,3.86,4.39v0.25H430.08
			z M434.79,47.81c-0.19-1.24-1-2.06-2.28-2.06c-1.24,0-2.15,0.88-2.35,2.06H434.79z"/>
		<path class="st3" d="M439.4,52.87h-1.59V37.56h1.59V52.87z"/>
		<path class="st3" d="M309.65,70.28l3.76-9.81l3.76,9.81l3.72-9.53h1.8l-5.52,13.83l-3.76-9.76l-3.76,9.76l-5.52-13.83h1.8
			L309.65,70.28z"/>
		<path class="st3" d="M330.24,74.05h-1.59v-1.29h-0.04c-0.64,0.93-1.62,1.57-2.81,1.57c-2.52,0-3.95-2.1-3.95-4.46
			c0-2.26,1.5-4.32,3.9-4.32c1.22,0,2.21,0.63,2.86,1.62h0.04v-1.38h1.59V74.05z M328.74,69.92c0-1.6-0.97-2.96-2.68-2.96
			c-1.64,0-2.61,1.43-2.61,2.96c0,1.55,0.93,3,2.61,3C327.79,72.92,328.74,71.54,328.74,69.92z"/>
		<path class="st3" d="M334.13,74.05h-1.59v-6.78h-0.86v-1.48h0.86v-3.16h1.59v3.16h1.55v1.48h-1.55V74.05z"/>
		<path class="st3" d="M337.5,70.19c0.02,1.41,0.97,2.74,2.49,2.74c1.22,0,1.87-0.62,2.47-1.61l1.34,0.76
			c-0.78,1.43-2.22,2.26-3.83,2.26c-2.52,0-4.06-1.9-4.06-4.34c0-2.54,1.36-4.44,4.02-4.44c2.63,0,3.86,1.94,3.86,4.39v0.25H337.5z
			 M342.21,68.99c-0.19-1.23-1.01-2.06-2.28-2.06c-1.24,0-2.15,0.88-2.35,2.06H342.21z"/>
		<path class="st3" d="M346.85,67.13h0.05c0.39-0.97,1.2-1.59,2.26-1.59c0.46,0,0.92,0.16,1.31,0.4l-0.72,1.45
			c-0.28-0.25-0.6-0.33-0.97-0.33c-1.71,0-1.92,1.59-1.92,2.93v4.06h-1.59v-8.26h1.59V67.13z"/>
		<path class="st3" d="M364.35,72.25c-1,1.18-2.42,2.08-3.99,2.08c-2.22,0-4.08-1.62-4.08-3.92c0-1.69,1.06-2.61,2.33-3.53l0.83-0.6
			c-0.76-0.79-1.47-1.78-1.47-2.91c0-1.84,1.33-2.91,3.07-2.91c1.62,0,3.07,1.02,3.07,2.77c0,1.5-1.31,2.51-2.42,3.32l2.77,3.35
			l1.55-1.8l1.06,1.09l-1.62,1.91l2.38,2.95h-2.04L364.35,72.25z M360.26,67.59c-0.91,0.63-2.42,1.53-2.42,2.8
			c0,1.27,1.2,2.45,2.47,2.45c1.23,0,2.22-0.93,3.05-1.77l-2.95-3.6L360.26,67.59z M360.98,65.26c0.67-0.53,1.59-1.08,1.59-2.05
			c0-0.94-0.67-1.45-1.55-1.45c-0.79,0-1.48,0.56-1.48,1.41c0,0.67,0.41,1.17,0.79,1.66l0.44,0.56L360.98,65.26z"/>
		<path class="st3" d="M375.57,62.26v3.74h4.62v1.52h-4.62v6.53h-1.66v-13.3h6.44v1.52H375.57z"/>
		<path class="st3" d="M390.2,69.94c0,2.49-1.94,4.39-4.41,4.39c-2.47,0-4.41-1.9-4.41-4.39c0-2.49,1.94-4.39,4.41-4.39
			C388.26,65.55,390.2,67.45,390.2,69.94z M382.97,69.94c0,1.55,1.25,2.87,2.82,2.87c1.57,0,2.82-1.32,2.82-2.87
			c0-1.57-1.25-2.88-2.82-2.88C384.22,67.06,382.97,68.37,382.97,69.94z"/>
		<path class="st3" d="M399.73,69.94c0,2.49-1.94,4.39-4.41,4.39c-2.47,0-4.41-1.9-4.41-4.39c0-2.49,1.94-4.39,4.41-4.39
			C397.79,65.55,399.73,67.45,399.73,69.94z M392.5,69.94c0,1.55,1.25,2.87,2.82,2.87c1.57,0,2.82-1.32,2.82-2.87
			c0-1.57-1.25-2.88-2.82-2.88C393.75,67.06,392.5,68.37,392.5,69.94z"/>
		<path class="st3" d="M407.34,72.76h-0.04c-0.63,0.93-1.64,1.57-2.8,1.57c-2.54,0-3.95-2.1-3.95-4.46c0-2.26,1.5-4.32,3.88-4.32
			c1.24,0,2.22,0.63,2.87,1.62h0.04v-8.43h1.59v15.32h-1.59V72.76z M407.42,69.92c0-1.6-0.97-2.96-2.68-2.96
			c-1.64,0-2.61,1.43-2.61,2.96c0,1.55,0.93,3,2.61,3C406.47,72.92,407.42,71.54,407.42,69.92z"/>
		<path class="st3" d="M422.18,63.27c-0.49-0.83-1.13-1.25-2.14-1.25c-1.06,0-2.22,0.72-2.22,1.89c0,1.04,1.02,1.59,1.85,1.91
			l0.95,0.37c1.89,0.74,3.3,1.78,3.3,4.01c0,2.42-1.87,4.15-4.25,4.15c-2.15,0-3.83-1.59-4.11-3.72l1.68-0.35
			c-0.02,1.47,1.14,2.52,2.57,2.52c1.43,0,2.45-1.2,2.45-2.59c0-1.43-1.15-2.05-2.29-2.52l-0.92-0.39
			c-1.52-0.65-2.89-1.52-2.89-3.37c0-2.15,1.91-3.44,3.92-3.44c1.48,0,2.7,0.72,3.43,2.01L422.18,63.27z"/>
		<path class="st3" d="M424.24,65.79h1.85l2.79,5.24l2.59-5.24h1.78l-6.69,12.99h-1.8l3.25-6.14L424.24,65.79z"/>
		<path class="st3" d="M437.42,67.68c-0.19-0.41-0.6-0.72-1.06-0.72c-0.44,0-0.86,0.35-0.86,0.81c0,0.72,0.95,1.04,1.92,1.48
			c0.97,0.44,1.91,1.04,1.91,2.35c0,1.57-1.31,2.73-2.84,2.73c-1.2,0-2.42-0.69-2.86-1.85l1.36-0.62c0.34,0.62,0.74,1.06,1.5,1.06
			c0.67,0,1.25-0.46,1.25-1.16c0-0.44-0.21-0.65-0.58-0.9l-1.55-0.83c-0.92-0.49-1.59-0.95-1.59-2.08c0-1.34,1.09-2.4,2.43-2.4
			c1.01,0,1.82,0.55,2.26,1.45L437.42,67.68z"/>
		<path class="st3" d="M442.7,74.05h-1.59v-6.78h-0.86v-1.48h0.86v-3.16h1.59v3.16h1.55v1.48h-1.55V74.05z"/>
		<path class="st3" d="M446.07,70.19c0.02,1.41,0.97,2.74,2.49,2.74c1.22,0,1.87-0.62,2.47-1.61l1.34,0.76
			c-0.78,1.43-2.22,2.26-3.83,2.26c-2.52,0-4.06-1.9-4.06-4.34c0-2.54,1.36-4.44,4.02-4.44c2.63,0,3.86,1.94,3.86,4.39v0.25H446.07z
			 M450.78,68.99c-0.19-1.23-1.01-2.06-2.28-2.06c-1.23,0-2.15,0.88-2.35,2.06H450.78z"/>
		<path class="st3" d="M455.26,66.83h0.04c0.46-0.72,1.29-1.29,2.19-1.29c1.07,0,1.85,0.55,2.38,1.46c0.51-0.88,1.5-1.46,2.54-1.46
			c2.17,0,2.73,1.69,2.73,3.57v4.94h-1.59v-4.67c0-1.06-0.14-2.42-1.53-2.42c-1.69,0-1.82,1.76-1.82,3.03v4.06h-1.59v-4.38
			c0-1.08-0.05-2.72-1.52-2.72c-1.69,0-1.84,1.75-1.84,3.03v4.06h-1.59v-8.26h1.59V66.83z"/>
		<path class="st3" d="M470.58,67.68c-0.19-0.41-0.6-0.72-1.06-0.72c-0.44,0-0.87,0.35-0.87,0.81c0,0.72,0.95,1.04,1.92,1.48
			c0.97,0.44,1.9,1.04,1.9,2.35c0,1.57-1.3,2.73-2.84,2.73c-1.2,0-2.42-0.69-2.86-1.85l1.36-0.62c0.33,0.62,0.74,1.06,1.5,1.06
			c0.67,0,1.25-0.46,1.25-1.16c0-0.44-0.21-0.65-0.58-0.9l-1.55-0.83c-0.92-0.49-1.59-0.95-1.59-2.08c0-1.34,1.09-2.4,2.43-2.4
			c1.01,0,1.82,0.55,2.26,1.45L470.58,67.68z"/>
		<path class="st3" d="M480.97,72.53h4.04v1.52h-5.7v-13.3h1.66V72.53z"/>
		<path class="st3" d="M493.68,74.05h-1.59v-1.29h-0.04c-0.63,0.93-1.62,1.57-2.81,1.57c-2.52,0-3.95-2.1-3.95-4.46
			c0-2.26,1.5-4.32,3.9-4.32c1.22,0,2.2,0.63,2.86,1.62h0.04v-1.38h1.59V74.05z M492.18,69.92c0-1.6-0.97-2.96-2.68-2.96
			c-1.64,0-2.61,1.43-2.61,2.96c0,1.55,0.93,3,2.61,3C491.23,72.92,492.18,71.54,492.18,69.92z"/>
		<path class="st3" d="M495.62,58.73h1.59v8.43h0.04c0.65-0.99,1.64-1.62,2.88-1.62c2.38,0,3.88,2.06,3.88,4.32
			c0,2.36-1.41,4.46-3.95,4.46c-1.17,0-2.17-0.63-2.8-1.57h-0.04v1.29h-1.59V58.73z M502.41,69.92c0-1.6-0.97-2.96-2.68-2.96
			c-1.64,0-2.61,1.43-2.61,2.96c0,1.55,0.93,3,2.61,3C501.46,72.92,502.41,71.54,502.41,69.92z"/>
	</g>
	<g>
		<defs>
			<path id="SVGID_00000120551868036741478400000005457179166548323489_" d="M176.06,79.28c-1.79,3.16-4.16,6-7.02,8.31
				c-5.18,4.19-11.7,6.51-18.36,6.51c-10.37,0-20.29-5.67-25.89-14.8c-5.45-8.89-5.82-19.43-1-28.93
				c9.22-18.17,24.26-27.94,36.75-35.1l-0.49-0.9c-12.72,7.3-28.56,16.39-38.05,35.1c-5.15,10.14-4.75,21.4,1.08,30.9
				c5.97,9.71,16.54,15.75,27.6,15.75c7.12,0,14.09-2.46,19.63-6.94c3.36-2.72,6.1-6.1,8.07-9.88H176.06z"/>
		</defs>
		<clipPath id="SVGID_00000163774107603953102430000001301735801914228371_">
			<use xlink:href="#SVGID_00000120551868036741478400000005457179166548323489_"  style="overflow:visible;"/>
		</clipPath>
		
			<linearGradient id="SVGID_00000096760105632641056350000006083891816137502854_" gradientUnits="userSpaceOnUse" x1="550.0758" y1="84.7012" x2="723.5372" y2="84.7012" gradientTransform="matrix(0.3603 0.3152 -0.6584 0.7527 -17.5923 -205.0702)">
			<stop  offset="7.666870e-03" style="stop-color:#98C93C"/>
			<stop  offset="0.0202" style="stop-color:#94C841"/>
			<stop  offset="0.1424" style="stop-color:#6DC16F"/>
			<stop  offset="0.2694" style="stop-color:#4BBB96"/>
			<stop  offset="0.3995" style="stop-color:#30B6B6"/>
			<stop  offset="0.5338" style="stop-color:#1BB2CF"/>
			<stop  offset="0.6739" style="stop-color:#0CAFE0"/>
			<stop  offset="0.8237" style="stop-color:#03AEEB"/>
			<stop  offset="1" style="stop-color:#00ADEE"/>
		</linearGradient>
		
			<polygon style="clip-path:url(#SVGID_00000163774107603953102430000001301735801914228371_);fill:url(#SVGID_00000096760105632641056350000006083891816137502854_);" points="
			160.66,117.23 98.16,62.56 151.5,1.58 214,56.25 		"/>
	</g>
	<g>
		<defs>
			<path id="SVGID_00000052786828661170658140000007896380315684085636_" d="M148.9,2.6L148.07,0c19,2.38,35.79,15.02,43.72,31.92
				h-2.08C182.2,16.3,166.82,4.84,148.9,2.6z"/>
		</defs>
		<clipPath id="SVGID_00000048474316734086478460000015305032338605066883_">
			<use xlink:href="#SVGID_00000052786828661170658140000007896380315684085636_"  style="overflow:visible;"/>
		</clipPath>
		
			<linearGradient id="SVGID_00000076561949059068726650000007615278892903453849_" gradientUnits="userSpaceOnUse" x1="158.6321" y1="107.3412" x2="158.6321" y2="-9.094947e-13">
			<stop  offset="5.321270e-03" style="stop-color:#594A42"/>
			<stop  offset="0.3968" style="stop-color:#978564"/>
			<stop  offset="0.4083" style="stop-color:#918669"/>
			<stop  offset="0.5067" style="stop-color:#659291"/>
			<stop  offset="0.6061" style="stop-color:#419CB3"/>
			<stop  offset="0.7053" style="stop-color:#24A3CD"/>
			<stop  offset="0.8041" style="stop-color:#10A9DF"/>
			<stop  offset="0.9025" style="stop-color:#04ACEA"/>
			<stop  offset="1" style="stop-color:#00ADEE"/>
		</linearGradient>
		
			<rect x="119.29" style="clip-path:url(#SVGID_00000048474316734086478460000015305032338605066883_);fill:url(#SVGID_00000076561949059068726650000007615278892903453849_);" width="78.68" height="107.34"/>
	</g>
	<path class="st6" d="M164.87,31.92h2.47c-0.86-1.21-1.7-2.38-2.53-3.51c-5.78-7.99-10.77-14.89-14.49-28.03l-1.94,0.55
		c3.82,13.48,8.91,20.51,14.79,28.65C163.74,30.36,164.31,31.13,164.87,31.92z"/>
	<g>
		<g>
			<path class="st7" d="M223.18,63.85l-4.46,10.48h-4.51l17.05-38.69l16.6,38.69h-4.56l-4.35-10.48H223.18z M231.16,45.23
				l-6.32,14.79h12.49L231.16,45.23z"/>
		</g>
		<g>
			<path class="st7" d="M153.05,66.64c0,2.94,0,6.02-1.86,8.47c-1.52,2.01-3.87,3.04-6.36,3.04c-2.45,0-4.71-1.18-6.57-2.74
				l2.3-3.18c1.32,1.22,2.44,2.1,4.36,2.1c4.02,0,4.02-4.8,4.02-7.69V37.4h4.12V66.64z"/>
			<path class="st7" d="M168.67,55.96v3.62h-10.04v-3.62H168.67z"/>
			<path class="st7" d="M181.84,65.07l11.95-29.58l11.95,29.58l9.69-27.67h4.46l-14.15,38.83L193.79,46.5l-11.95,29.73L167.69,37.4
				h4.46L181.84,65.07z"/>
		</g>
		<path class="st7" d="M255.48,41.22v10.97h12.29v3.82h-12.29v18.32h-4.11V37.4h16.8v3.82H255.48z"/>
		<path class="st7" d="M288.14,44.59c-1.47-2.54-3.23-4.01-6.38-4.01c-3.28,0-6.12,2.35-6.12,5.73c0,3.19,3.29,4.66,5.78,5.78
			l2.45,1.08c4.8,2.11,8.86,4.51,8.86,10.38c0,6.47-5.18,11.41-11.6,11.41c-5.93,0-10.34-3.82-11.51-9.55l4.02-1.12
			c0.54,3.77,3.43,6.85,7.4,6.85c3.97,0,7.59-3.04,7.59-7.2c0-4.31-3.38-5.78-6.81-7.35l-2.25-0.98c-4.3-1.96-8.03-4.16-8.03-9.45
			c0-5.73,4.85-9.4,10.33-9.4c4.12,0,7.59,2.11,9.55,5.73L288.14,44.59z"/>
	</g>
	<g>
		<defs>
			<path id="SVGID_00000125593045163828308710000004422672025586588818_" d="M187.5,79.28c-8.91,15.03-25.29,25.13-43.99,25.13
				c-5.4,0-10.72-0.84-15.81-2.49l-0.25,0.94c5.29,1.72,10.82,2.92,16.44,2.92c19.79,0,36.9-10.59,45.93-26.49H187.5z"/>
		</defs>
		<clipPath id="SVGID_00000106119304344347225270000017393227431416085389_">
			<use xlink:href="#SVGID_00000125593045163828308710000004422672025586588818_"  style="overflow:visible;"/>
		</clipPath>
		
			<linearGradient id="SVGID_00000096737443938961459660000016983454202083502997_" gradientUnits="userSpaceOnUse" x1="158.6321" y1="107.3412" x2="158.6321" y2="-9.094947e-13">
			<stop  offset="5.321270e-03" style="stop-color:#594A42"/>
			<stop  offset="0.3968" style="stop-color:#978564"/>
			<stop  offset="0.4083" style="stop-color:#918669"/>
			<stop  offset="0.5067" style="stop-color:#659291"/>
			<stop  offset="0.6061" style="stop-color:#419CB3"/>
			<stop  offset="0.7053" style="stop-color:#24A3CD"/>
			<stop  offset="0.8041" style="stop-color:#10A9DF"/>
			<stop  offset="0.9025" style="stop-color:#04ACEA"/>
			<stop  offset="1" style="stop-color:#00ADEE"/>
		</linearGradient>
		
			<rect x="119.29" style="clip-path:url(#SVGID_00000106119304344347225270000017393227431416085389_);fill:url(#SVGID_00000096737443938961459660000016983454202083502997_);" width="78.68" height="107.34"/>
	</g>
	<g>
		<path class="st7" d="M53.23,37.49v36.72h-4.08V37.49H53.23z"/>
		<path class="st7" d="M71.73,41.34v32.86h-4.08V41.34h-8.92v-3.85h21.91v3.85H71.73z"/>
		<polygon class="st7" points="4.12,74.32 8.56,45.17 18.42,70.57 19.87,74.32 21.34,74.32 22.79,70.57 32.65,45.17 37.09,74.32 
			41.21,74.32 35.59,37.4 31.3,37.4 20.61,64.94 9.91,37.4 5.62,37.4 0,74.32 		"/>
	</g>
</g>
</svg>
